<?xml version="1.0" encoding="UTF-8"?>
<svg id="Layer_1" data-name="Layer 1" xmlns="http://www.w3.org/2000/svg" viewBox="0 0 24 24">
  <defs>
    <style>
      .cls-1, .cls-2 {
        fill: #707070;
      }

      .cls-2 {
        opacity: .5;
      }
    </style>
  </defs>
  <circle cx="14.06" cy="8.21" r="3.33"/>
  <g>
    <path class="cls-1" d="M4.07,18.09c.12-.12.27-.27.45-.46l-.45.46s0,0,0,0Z"/>
    <path class="cls-2" d="M4.07,18.09c.12-.12.27-.27.45-.46l-.45.46s0,0,0,0Z"/>
    <path class="cls-1" d="M6.15,15.98s-.95.96-1.63,1.65l1.63-1.65Z"/>
    <path class="cls-2" d="M6.15,15.98s-.95.96-1.63,1.65l1.63-1.65Z"/>
    <path d="M10.38,11.09c-2.79-1.29-5.67,1.47-4.49,4.33.05.12.29.48.26.55,0,0-1.54,1.56-2.13,2.16.26.32.55.61.87.87l2.16-2.15c1.48.95,3.55.73,4.67-.89,1.16-1.67.5-4.01-1.35-4.87ZM8.42,16.11c-.73-.18-1.33-.77-1.5-1.5-.37-1.55.99-2.91,2.54-2.54.73.18,1.33.77,1.5,1.5.37,1.55-.99,2.91-2.54,2.54Z"/>
  </g>
  <path d="M18.77,15.2s-.01.02-.01.03c-.02-.05-.05-.09-.08-.13.03.03.06.07.09.1Z"/>
  <path d="M13.8,12.65s-.06,0-.09,0c.12.47.21.95.21,1.46,0,2.49-1.6,4.6-3.83,5.38h9.42c0-.38,0-.75,0-1.14,0-3.15-2.55-5.7-5.7-5.7Z"/>
</svg>