<?xml version="1.0" encoding="UTF-8"?>
<svg id="Layer_2" data-name="Layer 2" xmlns="http://www.w3.org/2000/svg" viewBox="0 0 19 19">
  <defs>
    <style>
      .cls-1 {
        fill: none;
        stroke: #000;
        stroke-miterlimit: 10;
      }
    </style>
  </defs>
  <g id="Layer_1-2" data-name="Layer 1">
    <g>
      <ellipse class="cls-1" cx="12" cy="4.6" rx="3.98" ry="4.1"/>
      <ellipse class="cls-1" cx="5.88" cy="11.84" rx="3.66" ry="3.77"/>
      <path d="M17.63,13.2s-.01.02-.01.04c-.02-.06-.06-.11-.1-.16.04.04.07.09.11.12Z"/>
      <path class="cls-1" d="M11.68,10.07s-.08,0-.11,0c.15.58.25,1.17.25,1.8,0,3.07-1.91,5.67-4.58,6.63h11.26c0-.47,0-.93,0-1.41,0-3.88-3.05-7.02-6.82-7.02Z"/>
      <path class="cls-1" d="M3.3,14.5l-2.8,2.88,2.8-2.88Z"/>
      <circle cx=".5" cy="17.38" r=".5"/>
    </g>
  </g>
</svg>